<svg width="50" height="50" viewBox="0 0 50 50" fill="none" xmlns="http://www.w3.org/2000/svg">
<g filter="url(#filter0_d_2_132524)">
<path d="M4.39648 20.605C4.39648 31.9848 13.6211 41.21 25.0003 41.21C36.3794 41.21 45.604 31.9848 45.604 20.605C45.604 9.22517 36.3794 0 25.0003 0C13.6211 0 4.39648 9.22517 4.39648 20.605Z" fill="#1877F2"/>
</g>
<path d="M35.302 20.6052C35.302 14.9389 30.6662 10.3027 25.0001 10.3027C19.3341 10.3027 14.6982 14.9389 14.6982 20.6052C14.6982 25.7565 18.4327 30.0063 23.3261 30.779V23.5672H20.7506V20.6052H23.3261V18.2872C23.3261 15.7115 24.8714 14.295 27.1893 14.295C28.3482 14.295 29.5072 14.5525 29.5072 14.5525V17.1281H28.2195C26.9317 17.1281 26.5454 17.9008 26.5454 18.6735V20.6052H29.3784L28.8633 23.5672H26.4166V30.9077C31.5676 30.135 35.302 25.7565 35.302 20.6052Z" fill="white"/>
<defs>
<filter id="filter0_d_2_132524" x="0.396484" y="0" width="49.208" height="49.21" filterUnits="userSpaceOnUse" color-interpolation-filters="sRGB">
<feFlood flood-opacity="0" result="BackgroundImageFix"/>
<feColorMatrix in="SourceAlpha" type="matrix" values="0 0 0 0 0 0 0 0 0 0 0 0 0 0 0 0 0 0 127 0" result="hardAlpha"/>
<feOffset dy="4"/>
<feGaussianBlur stdDeviation="2"/>
<feComposite in2="hardAlpha" operator="out"/>
<feColorMatrix type="matrix" values="0 0 0 0 0 0 0 0 0 0 0 0 0 0 0 0 0 0 0.25 0"/>
<feBlend mode="normal" in2="BackgroundImageFix" result="effect1_dropShadow_2_132524"/>
<feBlend mode="normal" in="SourceGraphic" in2="effect1_dropShadow_2_132524" result="shape"/>
</filter>
</defs>
</svg>
